<svg id="Calque_1" data-name="Calque 1" xmlns="http://www.w3.org/2000/svg" viewBox="0 0 286 10"><defs><style>.cls-1{fill:#3c1218;}</style></defs><title>barres-menus_</title><path class="cls-1" d="M140.53,7.33V8c3.33,0,6.66-.06,10,0,29.31.56,58.61,1.43,87.93,1.59,14.79.08,29.59-1.08,44.37-1.83,1.11-.06,2.16-1.35,3.23-2.07a33.39,33.39,0,0,0-3.14-2.47,4.29,4.29,0,0,0-2-.2C257.64,2.32,234.34,1.17,211,1.1,176.41,1,141.78,2,107.16,1.88,75.85,1.79,44.54.78,13.22.43,9.43.38,5.52,1.65,1.88,2.92.79,3.3-.06,5.78,0,7.28,0,8,2.37,9.21,3.68,9.19c19.48-.33,39-.83,58.42-1.31,5.66-.14,11.32-.5,17-.52C99.56,7.29,120.05,7.33,140.53,7.33Z"/></svg>