<svg id="Calque_1" data-name="Calque 1" xmlns="http://www.w3.org/2000/svg" viewBox="0 0 288 10"><defs><style>.cls-1{fill:#3c1218;}</style></defs><title>barres-menus_</title><path class="cls-1" d="M288.11,8.79a27,27,0,0,1-5,.92c-25.46.06-50.92,0-76.38.06-13.82,0-27.65.54-41.46.26C112.89,9,60.47,7.74,8.05,6.54a19.65,19.65,0,0,1-5.43-.63C1.43,5.54.51,4.32-.54,3.48c1-.93,1.88-2.48,3-2.67A57.75,57.75,0,0,1,12.89-.11c16,.15,31.94.49,47.91.7q73.41,1,146.83,1.86c18.65.22,37.3.17,55.95.34a149.6,149.6,0,0,1,16.95.81c2.76.35,5.34,2.16,8,3.31C288.4,7.54,288.25,8.16,288.11,8.79Z"/></svg>