<svg id="Calque_1" data-name="Calque 1" xmlns="http://www.w3.org/2000/svg" viewBox="0 0 388 14"><defs><style>.cls-1{fill:#595959;}</style></defs><title>barres-menus_</title><path class="cls-1" d="M387.92,5.41H376.48l-.1.92L388,7.66,387.88,9c-1.71,0-3.43,0-5.15,0-44.61.72-89.24,1.27-133.85,2.23-26.29.57-52.55,2.36-78.84,2.56-24.12.19-48.25-1.19-72.39-1.57-18-.28-35.94-.19-53.9,0-12,.11-24,.53-35.94,1-4.91.2-7-2.34-7.65-6.68C-.57,1.76,1.48.05,6.39.16c9.45.23,18.92-.07,28.39,0,6.15.06,12.29.56,18.44.63C66.69,1,80.17.73,93.63,1c22.79.5,45.57,1.54,68.36,1.87,21.3.31,42.61.23,63.91-.09,23.47-.36,46.93-1.46,70.4-1.7,16.81-.18,33.62.55,50.44.82,5.8.09,11.61-.17,17.41.07,7.91.34,15.81,1,23.71,1.54Z"/></svg>