<svg id="Calque_1" data-name="Calque 1" xmlns="http://www.w3.org/2000/svg" viewBox="0 0 450 90"><defs><style>.cls-1{fill:#fbca47;}</style></defs><title>ohmyfood_logo</title><path class="cls-1" d="M194.86,20.28h7c2.07,0,4.15.13,6.21,0,1.52-.13,2.09.51,2.62,1.79,4.28,10.46,8.62,20.9,12.94,31.35l.34.77c1.06-2.52,2-4.78,3-7q5.34-12.87,10.66-25.74a1.53,1.53,0,0,1,1.68-1.09c3.91.05,7.81,0,11.72,0,.43,0,1.25-.37,1,.73-.1.4.31.37.58.38a13.23,13.23,0,0,1,1.41,0c1,.12,1.16-.33,1.16-1.21a23.18,23.18,0,0,1,1.7-9.63C259.39,4.86,264,1.84,270.06.86a25.29,25.29,0,0,1,13.18,1.06c.13.05.27.07.4.13,2.24.9,2.26,1,1.44,3.2s-1.77,4.75-2.57,7.15c-.36,1.08-.66,1.53-1.86.79a9,9,0,0,0-5.72-1.07c-3.42.34-5.29,2.61-5.5,6.51-.15,2.79-.15,2.79,2.64,2.79,3,0,6,0,9,0,.95,0,1.32.21,1.29,1.24-.07,3,0,5.93,0,8.9,0,.92-.25,1.21-1.19,1.2-3.29-.05-6.59,0-9.88-.05-1.22,0-1.58.26-1.58,1.54.05,11.58,0,23.16.06,34.74,0,1.28-.31,1.67-1.62,1.64-3.9-.09-7.81-.08-11.72,0-1.13,0-1.41-.32-1.41-1.42,0-11.63,0-23.25.06-34.88,0-1.33-.39-1.68-1.65-1.6-1.69.1-3.39,0-5.08,0-.49,0-1,.11-1-1-3.92,9.21-7.69,18.05-11.45,26.9-2.48,5.83-4.87,11.69-7.46,17.47-2.2,4.9-5.22,9.26-10.35,11.45-7.75,3.31-15.29,2.5-22.48-1.83-.9-.54-1-1.09-.48-2q2.2-4,4.2-8.14c.45-.93.77-1,1.59-.41a11.8,11.8,0,0,0,9.57,2.23c2.42-.52,5.5-3.71,5.88-6.14a2.11,2.11,0,0,0-.26-1.21Q208,51.19,200,32.37c-1.55-3.62-3.13-7.24-4.69-10.86C195.13,21.16,195,20.8,194.86,20.28Z"/><path class="cls-1" d="M126.25,25.76c8.52-8.87,25.66-8.44,32.29,1.72,5.75-6.39,13-8.83,21.39-7.77,9.83,1.24,15.55,7.1,17,17a36.92,36.92,0,0,1,.3,4.92c0,9.13,0,18.26.05,27.39,0,1.29-.39,1.55-1.59,1.53-3.86-.08-7.72-.1-11.57,0-1.37,0-1.59-.45-1.59-1.67q.06-13.33,0-26.68a11.08,11.08,0,0,0-2.11-6.74c-2.15-2.85-5.17-3.58-8.52-3.25-6.75.67-9.56,5.66-9.68,11.47-.18,8.37-.1,16.75,0,25.13,0,1.5-.45,1.77-1.81,1.74-3.86-.09-7.72-.07-11.58,0-1.07,0-1.33-.29-1.33-1.34,0-7.81,0-15.62,0-23.43a24.7,24.7,0,0,0-1-7.92c-1.49-4.5-5.53-6.06-9.72-5.65-6.74.65-9.53,5.84-9.62,11.21-.15,8.51-.09,17,0,25.55,0,1.2-.23,1.62-1.53,1.59-4-.09-8-.07-12,0-1.08,0-1.33-.32-1.33-1.35q0-23.79,0-47.58c0-1,.15-1.42,1.28-1.4,3.86.07,7.72.06,11.58,0,1,0,1.27.35,1.22,1.29C126.2,22.85,126.25,24.16,126.25,25.76Z"/><path class="cls-1" d="M433.81,25.45c0-7.69,0-15.07,0-22.44,0-2.09-.26-1.85,1.9-1.85,3.86,0,7.72,0,11.57,0,.91,0,1.2.25,1.2,1.19q0,33.53,0,67c0,.9-.22,1.22-1.17,1.21-3.9,0-7.81-.06-11.71,0-1.05,0-1.27-.37-1.22-1.31.07-1.3,0-2.6,0-4.18A23.5,23.5,0,0,1,430,68.62a23.27,23.27,0,0,1-13.88,2.55,24.75,24.75,0,0,1-12.85-4.84,23.39,23.39,0,0,1-9-14.95c-1.18-6.53-.76-12.94,2.37-18.92,4-7.55,10.33-11.66,18.74-12.76a22.47,22.47,0,0,1,14.92,2.76A21.91,21.91,0,0,1,433.81,25.45Zm-13.92,6.11a11.35,11.35,0,0,0-9,5.25c-2.64,3.95-2.92,8.31-1.94,12.83,1.12,5.17,5,8.75,10.73,9.53A12,12,0,0,0,432,53.45,15.89,15.89,0,0,0,433.88,43C433,36.09,428.09,31.55,419.89,31.56Z"/><path class="cls-1" d="M71.74,25.14c8-6.22,16.53-7.39,25.58-3.7,6.74,2.75,9.76,8.44,10.85,15.35.54,3.41.26,6.85.28,10.28,0,7.39,0,14.78,0,22.16,0,1-.26,1.35-1.33,1.34-4-.06-8-.07-12,0-1.17,0-1.38-.38-1.38-1.44,0-8.52,0-17,0-25.55A18.22,18.22,0,0,0,93.23,39c-1.46-5.56-6-7.23-10.85-6.75-7.84.77-10.49,6.37-10.6,12.58-.15,8.09-.06,16.19,0,24.28,0,1.19-.32,1.49-1.49,1.47-4-.07-7.91-.06-11.86,0-1,0-1.37-.18-1.37-1.3q0-33.45,0-66.91c0-1,.35-1.25,1.3-1.24,4,0,8,.06,12,0,1.11,0,1.42.29,1.42,1.41,0,7.06,0,14.12,0,21.18Z"/><path class="cls-1" d="M336.94,45.57A25.28,25.28,0,0,1,358.46,20c8.38-1.42,16.29-.33,23.37,4.66A23.73,23.73,0,0,1,392,42.39c.89,8.3-1.4,15.54-7.37,21.41-4.54,4.47-10.2,6.67-16.51,7.33a30.18,30.18,0,0,1-18.59-3.61,24,24,0,0,1-12.38-18.31C337,47.94,337,46.69,336.94,45.57Zm14.91-.2a14.1,14.1,0,0,0,.64,5c1.6,5.07,5.07,8.06,10.3,8.75,4.67.62,8.78-.68,11.75-4.55,2.82-3.66,3.23-7.89,2.55-12.31-1.6-10.36-12.21-13-19-9C353.42,35.91,351.86,40.28,351.85,45.37Z"/><path class="cls-1" d="M308.13,19.44c8.1.17,15.39,2.44,21.05,8.54,5.37,5.8,7.25,12.77,6.42,20.56a24,24,0,0,1-7.27,15.17,27.35,27.35,0,0,1-16.64,7.43,30.39,30.39,0,0,1-15.83-2.27c-8.79-3.86-13.94-10.56-15.13-20.15-1-8.4,1.26-15.75,7.35-21.7a26.79,26.79,0,0,1,16.25-7.31A32.36,32.36,0,0,1,308.13,19.44ZM320.89,45.5a14.43,14.43,0,0,0-.66-5.15c-1.57-4.94-4.92-8-10.05-8.66-4.63-.63-8.77.58-11.85,4.37-2.59,3.19-3.19,6.94-2.91,10.88.83,11.56,12,14.82,19.35,10.6C319.36,54.89,320.82,50.51,320.89,45.5Z"/><path class="cls-1" d="M56.78,45.41C57,58.51,47.72,68.83,34.7,70.86c-7,1.1-13.78.36-20.06-3.09A24,24,0,0,1,1.69,48.34,25.22,25.22,0,0,1,6.14,30.46c4-5.76,9.78-9,16.55-10.35a30.39,30.39,0,0,1,20.92,2.82A24.13,24.13,0,0,1,56.52,41.21,31,31,0,0,1,56.78,45.41Zm-40.42,0A14.21,14.21,0,0,0,17,50c1.56,5.31,5.1,8.51,10.59,9.15,5,.58,9.22-1,12.1-5.29,2-3.06,2.45-6.52,2.19-10.11-.75-10.66-10.57-14.49-18.24-11C18.26,35.2,16.53,39.91,16.36,45.41Z"/></svg>